<?xml version="1.0" encoding="UTF-8"?>
<!DOCTYPE svg PUBLIC "-//W3C//DTD SVG 1.1//EN" "http://www.w3.org/Graphics/SVG/1.1/DTD/svg11.dtd">
<!-- Creator: CorelDRAW 2020 (64-Bit) -->
<svg xmlns="http://www.w3.org/2000/svg" xml:space="preserve" width="5.5221mm" height="5.5224mm" version="1.1" style="shape-rendering:geometricPrecision; text-rendering:geometricPrecision; image-rendering:optimizeQuality; fill-rule:evenodd; clip-rule:evenodd"
viewBox="0 0 25.08 25.08"
 xmlns:xlink="http://www.w3.org/1999/xlink"
 xmlns:xodm="http://www.corel.com/coreldraw/odm/2003">
 <defs>
  <style type="text/css">
   <![CDATA[
    .fil0 {fill:#727376;fill-rule:nonzero}
   ]]>
  </style>
 </defs>
 <g id="Layer_x0020_1">
  <metadata id="CorelCorpID_0Corel-Layer"/>
  <g id="_2296729632960">
   <g>
    <g>
     <path class="fil0" d="M21.4 3.67c-2.37,-2.37 -5.51,-3.67 -8.86,-3.67 -3.35,0 -6.49,1.3 -8.86,3.67 -4.58,4.58 -4.9,11.91 -0.79,16.86 -0.4,0.81 -1.05,1.76 -2.01,2.23 -0.46,0.23 -0.72,0.72 -0.64,1.23 0.08,0.51 0.47,0.91 0.98,0.99 0.24,0.04 0.58,0.07 0.99,0.07 1.11,0 2.74,-0.26 4.41,-1.46 1.86,1 3.9,1.49 5.92,1.49 3.25,0 6.46,-1.26 8.88,-3.67 2.37,-2.37 3.67,-5.51 3.67,-8.86 0,-3.35 -1.31,-6.49 -3.68,-8.86zm-1.01 16.72c-3.58,3.58 -9.12,4.29 -13.48,1.73 -0.29,-0.17 -0.64,-0.12 -0.87,0.11 -0.02,0.01 -0.04,0.03 -0.06,0.04 -1.44,1.11 -2.85,1.35 -3.78,1.35l-0.01 0c1.08,-0.78 1.76,-1.95 2.15,-2.86 0.06,-0.15 0.07,-0.31 0.04,-0.46 -0.02,-0.14 -0.07,-0.29 -0.17,-0.4 -3.88,-4.38 -3.68,-11.06 0.47,-15.21 4.33,-4.33 11.38,-4.33 15.7,0 4.34,4.33 4.34,11.37 0,15.7z"/>
     <circle class="fil0" cx="12.53" cy="12.54" r="0.88"/>
     <circle class="fil0" cx="17.07" cy="12.54" r="0.88"/>
     <circle class="fil0" cx="7.99" cy="12.54" r="0.88"/>
    </g>
   </g>
   <g>
   </g>
   <g>
   </g>
   <g>
   </g>
   <g>
   </g>
   <g>
   </g>
   <g>
   </g>
   <g>
   </g>
   <g>
   </g>
   <g>
   </g>
   <g>
   </g>
   <g>
   </g>
   <g>
   </g>
   <g>
   </g>
   <g>
   </g>
   <g>
   </g>
  </g>
 </g>
</svg>
