<?xml version="1.0" encoding="UTF-8"?>
<!DOCTYPE svg PUBLIC "-//W3C//DTD SVG 1.1//EN" "http://www.w3.org/Graphics/SVG/1.1/DTD/svg11.dtd">
<!-- Creator: CorelDRAW 2020 (64-Bit) -->
<svg xmlns="http://www.w3.org/2000/svg" xml:space="preserve" width="20px" height="20px" version="1.1" style="shape-rendering:geometricPrecision; text-rendering:geometricPrecision; image-rendering:optimizeQuality; fill-rule:evenodd; clip-rule:evenodd"
viewBox="0 0 3.36 3.36"
 xmlns:xlink="http://www.w3.org/1999/xlink"
 xmlns:xodm="http://www.corel.com/coreldraw/odm/2003">
 <defs>
  <style type="text/css">
   <![CDATA[
    .fil0 {fill:#FEFEFE}
   ]]>
  </style>
 </defs>
 <g id="Layer_x0020_1">
  <metadata id="CorelCorpID_0Corel-Layer"/>
  <path class="fil0" d="M2.02 0.37c0.13,0.03 0.25,0.08 0.36,0.15l0.26 -0.26 0.47 0.47 -0.26 0.26c0.07,0.11 0.12,0.23 0.15,0.36l0.37 0 0 0.67 -0.37 0c-0.03,0.13 -0.08,0.25 -0.15,0.36l0.26 0.26 -0.47 0.47 -0.26 -0.26c-0.11,0.07 -0.23,0.12 -0.36,0.15l0 0.37 -0.67 0 0 -0.37c-0.13,-0.03 -0.25,-0.08 -0.36,-0.15l-0.26 0.26 -0.47 -0.47 0.26 -0.26c-0.07,-0.11 -0.12,-0.23 -0.15,-0.36l-0.37 0 0 -0.67 0.37 0c0.03,-0.13 0.08,-0.25 0.15,-0.36l-0.26 -0.26 0.47 -0.47 0.26 0.26c0.11,-0.07 0.23,-0.12 0.36,-0.15l0 -0.37 0.67 0 0 0.37zm-0.33 0.54c0.43,0 0.77,0.34 0.77,0.77 0,0.43 -0.34,0.77 -0.77,0.77 -0.43,0 -0.77,-0.34 -0.77,-0.77 0,-0.43 0.34,-0.77 0.77,-0.77z"/>
 </g>
</svg>
