<?xml version="1.0" encoding="UTF-8"?>
<!DOCTYPE svg PUBLIC "-//W3C//DTD SVG 1.1//EN" "http://www.w3.org/Graphics/SVG/1.1/DTD/svg11.dtd">
<!-- Creator: CorelDRAW 2020 (64-Bit) -->
<svg xmlns="http://www.w3.org/2000/svg" xml:space="preserve" width="10.6481mm" height="8.1032mm" version="1.1" style="shape-rendering:geometricPrecision; text-rendering:geometricPrecision; image-rendering:optimizeQuality; fill-rule:evenodd; clip-rule:evenodd"
viewBox="0 0 34.87 26.54"
 xmlns:xlink="http://www.w3.org/1999/xlink"
 xmlns:xodm="http://www.corel.com/coreldraw/odm/2003">
 <defs>
  <style type="text/css">
   <![CDATA[
    .fil0 {fill:#4B4B4D;fill-rule:nonzero}
   ]]>
  </style>
 </defs>
 <g id="Layer_x0020_1">
  <metadata id="CorelCorpID_0Corel-Layer"/>
  <g id="_2296925702496">
   <path class="fil0" d="M30.62 0l-26.35 0c-2.35,0 -4.26,1.91 -4.26,4.26l0 18.01c0,2.35 1.91,4.26 4.26,4.26l26.34 0c2.35,0 4.26,-1.91 4.26,-4.26l0 -18c0.01,-2.35 -1.91,-4.27 -4.26,-4.27zm2.32 22.28c0,1.28 -1.04,2.32 -2.32,2.32l-26.35 0c-1.28,0 -2.32,-1.04 -2.32,-2.32l0 -18c0,-1.28 1.04,-2.32 2.32,-2.32l26.34 0c1.28,0 2.32,1.04 2.32,2.32l0 18 0.01 0z"/>
   <path class="fil0" d="M21.99 13.05l8.53 -7.65c0.4,-0.36 0.43,-0.97 0.07,-1.38 -0.36,-0.4 -0.97,-0.43 -1.38,-0.07l-11.76 10.56 -2.29 -2.05c-0.01,-0.01 -0.01,-0.01 -0.01,-0.02 -0.05,-0.05 -0.1,-0.09 -0.16,-0.14l-9.34 -8.36c-0.4,-0.36 -1.02,-0.32 -1.38,0.08 -0.36,0.4 -0.32,1.02 0.08,1.38l8.63 7.71 -8.59 8.05c-0.39,0.37 -0.41,0.98 -0.04,1.38 0.19,0.2 0.45,0.31 0.71,0.31 0.24,0 0.48,-0.09 0.66,-0.26l8.72 -8.16 2.37 2.11c0.19,0.17 0.42,0.25 0.65,0.25 0.23,0 0.47,-0.09 0.65,-0.25l2.43 -2.18 8.67 8.24c0.19,0.18 0.43,0.27 0.67,0.27 0.26,0 0.51,-0.1 0.71,-0.3 0.37,-0.39 0.35,-1.01 -0.04,-1.38l-8.57 -8.13z"/>
  </g>
 </g>
</svg>
