<?xml version="1.0" encoding="UTF-8"?>
<!DOCTYPE svg PUBLIC "-//W3C//DTD SVG 1.1//EN" "http://www.w3.org/Graphics/SVG/1.1/DTD/svg11.dtd">
<!-- Creator: CorelDRAW 2020 (64-Bit) -->
<svg xmlns="http://www.w3.org/2000/svg" xml:space="preserve" width="4.6815mm" height="10.8252mm" version="1.1" style="shape-rendering:geometricPrecision; text-rendering:geometricPrecision; image-rendering:optimizeQuality; fill-rule:evenodd; clip-rule:evenodd"
viewBox="0 0 39.1 90.42"
 xmlns:xlink="http://www.w3.org/1999/xlink"
 xmlns:xodm="http://www.corel.com/coreldraw/odm/2003">
 <defs>
  <style type="text/css">
   <![CDATA[
    .fil0 {fill:#A06CD5;fill-rule:nonzero}
   ]]>
  </style>
 </defs>
 <g id="Layer_x0020_1">
  <metadata id="CorelCorpID_0Corel-Layer"/>
  <g id="_2296833889568">
   <g>
    <g>
     <path class="fil0" d="M19.39 0c-10.69,0 -19.39,8.7 -19.39,19.39l0 40.83c0,1.26 1.02,2.28 2.28,2.28 1.26,0 2.28,-1.02 2.28,-2.28l0 -40.83c0,-7.92 6.91,-14.83 14.83,-14.83 8.18,0 14.83,6.65 14.83,14.83l0.32 57.34c0,4.88 -4.25,9.12 -9.13,9.12 -5.03,0 -9.12,-4.09 -9.12,-9.12l-0.32 -55.06c0,-1.83 1.59,-3.42 3.42,-3.42 1.89,0 3.42,1.54 3.42,3.42l0.32 52.78c0,1.09 1.19,2.28 2.28,2.28 1.26,0 2.28,-1.02 2.28,-2.28l-0.32 -52.78c0,-4.41 -3.58,-7.98 -7.98,-7.98 -4.27,0 -7.98,3.72 -7.98,7.98l0.32 55.06c0,7.49 6.2,13.69 13.69,13.69 3.66,0 7.07,-1.45 9.66,-4.03 2.58,-2.59 4.03,-6 4.03,-9.66l-0.32 -57.34c0,-10.69 -8.7,-19.39 -19.39,-19.39z"/>
    </g>
   </g>
   <g>
   </g>
   <g>
   </g>
   <g>
   </g>
   <g>
   </g>
   <g>
   </g>
   <g>
   </g>
   <g>
   </g>
   <g>
   </g>
   <g>
   </g>
   <g>
   </g>
   <g>
   </g>
   <g>
   </g>
   <g>
   </g>
   <g>
   </g>
   <g>
   </g>
  </g>
 </g>
</svg>
