<?xml version="1.0" encoding="UTF-8"?>
<!DOCTYPE svg PUBLIC "-//W3C//DTD SVG 1.1//EN" "http://www.w3.org/Graphics/SVG/1.1/DTD/svg11.dtd">
<!-- Creator: CorelDRAW 2020 (64-Bit) -->
<svg xmlns="http://www.w3.org/2000/svg" xml:space="preserve" width="10.6481mm" height="11.0201mm" version="1.1" style="shape-rendering:geometricPrecision; text-rendering:geometricPrecision; image-rendering:optimizeQuality; fill-rule:evenodd; clip-rule:evenodd"
viewBox="0 0 34.94 36.16"
 xmlns:xlink="http://www.w3.org/1999/xlink"
 xmlns:xodm="http://www.corel.com/coreldraw/odm/2003">
 <defs>
  <style type="text/css">
   <![CDATA[
    .str0 {stroke:#4B4B4D;stroke-width:3.47;stroke-linecap:round;stroke-linejoin:round;stroke-miterlimit:22.9256}
    .fil1 {fill:none}
    .fil0 {fill:#4B4B4D;fill-rule:nonzero}
   ]]>
  </style>
 </defs>
 <g id="Layer_x0020_1">
  <metadata id="CorelCorpID_0Corel-Layer"/>
  <g id="_2296340802752">
   <path class="fil0" d="M30.67 9.57l-26.4 0c-2.36,0 -4.27,1.92 -4.27,4.27l0 18.04c0,2.36 1.92,4.27 4.27,4.27l26.39 0c2.36,0 4.27,-1.92 4.27,-4.27l0 -18.04c0.01,-2.36 -1.91,-4.28 -4.27,-4.28zm2.32 22.32c0,1.28 -1.04,2.32 -2.32,2.32l-26.4 0c-1.28,0 -2.32,-1.04 -2.32,-2.32l0 -18.04c0,-1.28 1.04,-2.32 2.32,-2.32l26.39 0c1.28,0 2.32,1.04 2.32,2.32l0 18.04 0.01 0z"/>
   <line class="fil1 str0" x1="15.98" y1="9.57" x2="3.47" y2= "1.74" />
   <line class="fil1 str0" x1="17.45" y1="9.57" x2="29.96" y2= "1.74" />
  </g>
 </g>
</svg>
