<?xml version="1.0" encoding="UTF-8"?>
<!DOCTYPE svg PUBLIC "-//W3C//DTD SVG 1.1//EN" "http://www.w3.org/Graphics/SVG/1.1/DTD/svg11.dtd">
<!-- Creator: CorelDRAW 2020 (64-Bit) -->
<svg xmlns="http://www.w3.org/2000/svg" xml:space="preserve" width="10.6481mm" height="10.16mm" version="1.1" style="shape-rendering:geometricPrecision; text-rendering:geometricPrecision; image-rendering:optimizeQuality; fill-rule:evenodd; clip-rule:evenodd"
viewBox="0 0 34.87 33.28"
 xmlns:xlink="http://www.w3.org/1999/xlink"
 xmlns:xodm="http://www.corel.com/coreldraw/odm/2003">
 <defs>
  <style type="text/css">
   <![CDATA[
    .fil0 {fill:#4B4B4D;fill-rule:nonzero}
   ]]>
  </style>
 </defs>
 <g id="Layer_x0020_1">
  <metadata id="CorelCorpID_0Corel-Layer"/>
  <path class="fil0" d="M34.55 15.01l-16.41 -14.68c-0.03,-0.03 -0.06,-0.05 -0.09,-0.07 -0.36,-0.34 -0.93,-0.36 -1.31,-0.02l-16.41 14.68c-0.4,0.36 -0.43,0.97 -0.08,1.37 0.19,0.22 0.46,0.32 0.72,0.32 0.23,0 0.46,-0.08 0.65,-0.24l2.96 -2.65 0 0.52 0 7.66 0 8.94c0,1.34 1.09,2.44 2.44,2.44 0.02,0 0.04,0 0.06,0 0.02,0 0.04,0 0.06,0l5.06 0c1.26,0 2.29,-1.03 2.29,-2.29l0 -8.7c0,-0.19 0.16,-0.35 0.35,-0.35l5.23 0c0.19,0 0.35,0.16 0.35,0.35l0 8.7c0,1.26 1.03,2.29 2.29,2.29l5.18 0c1.36,0 2.44,-1.34 2.44,-3.06l0 -7.98 0 -2.44 0 -5.99 2.96 2.65c0.19,0.17 0.42,0.24 0.65,0.24 0.27,0 0.53,-0.11 0.72,-0.32 0.34,-0.4 0.31,-1.01 -0.09,-1.37zm-6.18 4.78l0 2.44 0 7.97c0,0.7 -0.34,1.12 -0.5,1.12l-5.18 0c-0.19,0 -0.35,-0.16 -0.35,-0.35l0 -8.69c0,-1.26 -1.03,-2.29 -2.29,-2.29l-5.23 0c-1.26,0 -2.29,1.03 -2.29,2.29l0 8.7c0,0.19 -0.16,0.35 -0.35,0.35l-5.06 0c-0.02,0 -0.04,0 -0.06,0 -0.02,0 -0.04,0 -0.06,0 -0.27,0 -0.5,-0.22 -0.5,-0.5l0 -8.94 0 -7.66 0 -2.25 10.89 -9.73 10.98 9.82 0 7.72 0 0z"/>
 </g>
</svg>
