<?xml version="1.0" encoding="UTF-8"?>
<!DOCTYPE svg PUBLIC "-//W3C//DTD SVG 1.1//EN" "http://www.w3.org/Graphics/SVG/1.1/DTD/svg11.dtd">
<!-- Creator: CorelDRAW 2020 (64-Bit) -->
<svg xmlns="http://www.w3.org/2000/svg" xml:space="preserve" width="7.5823mm" height="7.5823mm" version="1.1" style="shape-rendering:geometricPrecision; text-rendering:geometricPrecision; image-rendering:optimizeQuality; fill-rule:evenodd; clip-rule:evenodd"
viewBox="0 0 32.95 32.95"
 xmlns:xlink="http://www.w3.org/1999/xlink"
 xmlns:xodm="http://www.corel.com/coreldraw/odm/2003">
 <defs>
  <style type="text/css">
   <![CDATA[
    .fil0 {fill:#E1E1E1;fill-rule:nonzero}
   ]]>
  </style>
 </defs>
 <g id="Layer_x0020_1">
  <metadata id="CorelCorpID_0Corel-Layer"/>
  <g id="_2296618399328">
   <g>
    <g>
     <path class="fil0" d="M28.74 0l-24.53 0c-2.32,0 -4.21,1.89 -4.21,4.21l0 24.53c0,2.32 1.89,4.21 4.21,4.21l24.53 0c2.32,0 4.21,-1.89 4.21,-4.21l0 -24.53c0,-2.32 -1.89,-4.21 -4.21,-4.21zm2.27 28.74c0,1.25 -1.02,2.27 -2.27,2.27l-24.53 0c-1.25,0 -2.27,-1.02 -2.27,-2.27l0 -3.54 6.39 -5.43c0.23,-0.2 0.57,-0.2 0.81,-0l4 3.32c0.39,0.32 0.95,0.29 1.31,-0.06l9.51 -9.52c0.17,-0.17 0.37,-0.19 0.48,-0.18 0.1,0.01 0.3,0.04 0.46,0.23l6.12 7.54 0 7.65 0 0zm0 -10.73l-4.62 -5.69c-0.46,-0.56 -1.14,-0.91 -1.86,-0.95 -0.73,-0.04 -1.44,0.24 -1.95,0.75l-8.88 8.9 -3.32 -2.76c-0.96,-0.8 -2.35,-0.79 -3.31,0.02l-5.13 4.36 0 -18.44c0,-1.25 1.02,-2.27 2.27,-2.27l24.53 0c1.25,0 2.27,1.02 2.27,2.27l0 13.8z"/>
    </g>
   </g>
   <g>
    <g>
     <path class="fil0" d="M10.37 4.05c-2.58,0 -4.68,2.1 -4.68,4.68 0,2.58 2.1,4.68 4.68,4.68 2.58,0 4.68,-2.1 4.68,-4.68 0,-2.58 -2.1,-4.68 -4.68,-4.68zm0 7.42c-1.51,0 -2.74,-1.23 -2.74,-2.74 0,-1.51 1.23,-2.74 2.74,-2.74 1.51,0 2.74,1.23 2.74,2.74 0,1.51 -1.23,2.74 -2.74,2.74z"/>
    </g>
   </g>
   <g>
   </g>
   <g>
   </g>
   <g>
   </g>
   <g>
   </g>
   <g>
   </g>
   <g>
   </g>
   <g>
   </g>
   <g>
   </g>
   <g>
   </g>
   <g>
   </g>
   <g>
   </g>
   <g>
   </g>
   <g>
   </g>
   <g>
   </g>
   <g>
   </g>
  </g>
 </g>
</svg>
