<?xml version="1.0" encoding="UTF-8"?>
<!DOCTYPE svg PUBLIC "-//W3C//DTD SVG 1.1//EN" "http://www.w3.org/Graphics/SVG/1.1/DTD/svg11.dtd">
<!-- Creator: CorelDRAW 2020 (64-Bit) -->
<svg xmlns="http://www.w3.org/2000/svg" xml:space="preserve" width="6.0269mm" height="7.244mm" version="1.1" style="shape-rendering:geometricPrecision; text-rendering:geometricPrecision; image-rendering:optimizeQuality; fill-rule:evenodd; clip-rule:evenodd"
viewBox="0 0 23.09 27.75"
 xmlns:xlink="http://www.w3.org/1999/xlink"
 xmlns:xodm="http://www.corel.com/coreldraw/odm/2003">
 <defs>
  <style type="text/css">
   <![CDATA[
    .fil0 {fill:#A06CD5}
   ]]>
  </style>
 </defs>
 <g id="Layer_x0020_1">
  <metadata id="CorelCorpID_0Corel-Layer"/>
  <path class="fil0" d="M15.05 5.21c4.66,1.49 8.03,5.85 8.03,11 0,6.37 -5.17,11.54 -11.54,11.54 -6.37,0 -11.54,-5.17 -11.54,-11.54 0,-5.15 3.37,-9.51 8.03,-11l0 3.87c-2.63,1.3 -4.44,4 -4.44,7.13 0,4.39 3.56,7.95 7.95,7.95 4.39,0 7.95,-3.56 7.95,-7.95 0,-3.13 -1.81,-5.84 -4.44,-7.13l0 -3.87z"/>
  <rect class="fil0" x="9.37" y="0" width="4.34" height="14.68" rx="2.17" ry="1.8"/>
 </g>
</svg>
