<?xml version="1.0" encoding="UTF-8"?>
<!DOCTYPE svg PUBLIC "-//W3C//DTD SVG 1.1//EN" "http://www.w3.org/Graphics/SVG/1.1/DTD/svg11.dtd">
<!-- Creator: CorelDRAW 2020 (64-Bit) -->
<svg xmlns="http://www.w3.org/2000/svg" xml:space="preserve" width="3.8502mm" height="3.5738mm" version="1.1" style="shape-rendering:geometricPrecision; text-rendering:geometricPrecision; image-rendering:optimizeQuality; fill-rule:evenodd; clip-rule:evenodd"
viewBox="0 0 11.98 11.12"
 xmlns:xlink="http://www.w3.org/1999/xlink"
 xmlns:xodm="http://www.corel.com/coreldraw/odm/2003">
 <defs>
  <style type="text/css">
   <![CDATA[
    .fil0 {fill:#FEFEFE}
   ]]>
  </style>
 </defs>
 <g id="Layer_x0020_1">
  <metadata id="CorelCorpID_0Corel-Layer"/>
  <path class="fil0" d="M5.99 0l0 0c2.53,0 4.59,2.07 4.59,4.59l0 4.75 1.13 0c0.15,0 0.27,0.12 0.27,0.27l0 0c0,0.15 -0.12,0.27 -0.27,0.27l-1.13 0 -3.38 0 0 0.03c0,0.67 -0.54,1.21 -1.21,1.21 -0.67,0 -1.21,-0.54 -1.21,-1.21l0 -0.03 -3.38 0 -1.13 0c-0.15,0 -0.27,-0.12 -0.27,-0.27l0 -0c0,-0.15 0.12,-0.27 0.27,-0.27l1.13 0 0 -4.75c0,-2.53 2.07,-4.59 4.59,-4.59z"/>
 </g>
</svg>
