<?xml version="1.0" encoding="UTF-8"?>
<!DOCTYPE svg PUBLIC "-//W3C//DTD SVG 1.1//EN" "http://www.w3.org/Graphics/SVG/1.1/DTD/svg11.dtd">
<!-- Creator: CorelDRAW 2020 (64-Bit) -->
<svg xmlns="http://www.w3.org/2000/svg" xml:space="preserve" width="13.5082mm" height="11.1154mm" version="1.1" style="shape-rendering:geometricPrecision; text-rendering:geometricPrecision; image-rendering:optimizeQuality; fill-rule:evenodd; clip-rule:evenodd"
viewBox="0 0 55.74 45.87"
 xmlns:xlink="http://www.w3.org/1999/xlink"
 xmlns:xodm="http://www.corel.com/coreldraw/odm/2003">
 <defs>
  <style type="text/css">
   <![CDATA[
    .str1 {stroke:#4B4B4D;stroke-width:3.54;stroke-linecap:round;stroke-linejoin:round;stroke-miterlimit:22.9256}
    .str0 {stroke:#4B4B4D;stroke-width:3.55;stroke-linecap:round;stroke-linejoin:round;stroke-miterlimit:22.9256}
    .fil0 {fill:none}
   ]]>
  </style>
 </defs>
 <g id="Layer_x0020_1">
  <metadata id="CorelCorpID_0Corel-Layer"/>
  <g id="_2296296268944">
   <g>
    <path class="fil0 str0" d="M1.78 39.56l8.78 0m34.64 0l8.78 0m-8.78 0l-34.64 0 0 -0.21 0 -20.26c0,-9.53 7.79,-17.32 17.32,-17.32l0 0c9.53,0 17.32,7.79 17.32,17.32l0 20.43 0 0.04z"/>
   </g>
   <g>
    <path class="fil0 str1" d="M31.33 39.56c0.08,0.3 0.13,0.62 0.13,0.95 0,1.98 -1.61,3.59 -3.59,3.59 -1.98,0 -3.59,-1.61 -3.59,-3.59 0,-0.33 0.04,-0.65 0.13,-0.95l6.92 0z"/>
   </g>
  </g>
 </g>
</svg>
