<?xml version="1.0" encoding="UTF-8"?>
<!DOCTYPE svg PUBLIC "-//W3C//DTD SVG 1.1//EN" "http://www.w3.org/Graphics/SVG/1.1/DTD/svg11.dtd">
<!-- Creator: CorelDRAW 2020 (64-Bit) -->
<svg xmlns="http://www.w3.org/2000/svg" xml:space="preserve" width="13.9386mm" height="13.9386mm" version="1.1" style="shape-rendering:geometricPrecision; text-rendering:geometricPrecision; image-rendering:optimizeQuality; fill-rule:evenodd; clip-rule:evenodd"
viewBox="0 0 59.2 59.2"
 xmlns:xlink="http://www.w3.org/1999/xlink"
 xmlns:xodm="http://www.corel.com/coreldraw/odm/2003">
 <defs>
  <style type="text/css">
   <![CDATA[
    .str1 {stroke:#4B4B4D;stroke-width:3;stroke-linecap:round;stroke-linejoin:round;stroke-miterlimit:22.9256}
    .str0 {stroke:#4B4B4D;stroke-width:3;stroke-linecap:round;stroke-linejoin:round;stroke-miterlimit:22.9256}
    .str2 {stroke:#4B4B4D;stroke-width:3;stroke-linecap:round;stroke-linejoin:round;stroke-miterlimit:22.9256}
    .fil0 {fill:none}
   ]]>
  </style>
 </defs>
 <g id="Layer_x0020_1">
  <metadata id="CorelCorpID_0Corel-Layer"/>
  <g>
   <path class="fil0 str0" d="M29.6 1.5c15.52,0 28.1,12.58 28.1,28.1 0,15.52 -12.58,28.1 -28.1,28.1 -15.52,0 -28.1,-12.58 -28.1,-28.1 0,-15.52 12.58,-28.1 28.1,-28.1z"/>
  </g>
  <g>
   <path class="fil0 str1" d="M46.75 51.86c-4.75,3.66 -10.69,5.84 -17.15,5.84 -6.46,0 -12.41,-2.18 -17.15,-5.84 2.58,-6.97 9.31,-11.98 17.15,-11.98l0 0c7.84,0 14.57,5.01 17.15,11.98z"/>
  </g>
  <g>
   <path class="fil0 str2" d="M29.6 17c4.08,0 7.39,3.31 7.39,7.4 0,4.08 -3.31,7.39 -7.39,7.39 -4.08,0 -7.39,-3.31 -7.39,-7.39 0,-4.08 3.31,-7.4 7.39,-7.4z"/>
  </g>
 </g>
</svg>
