<?xml version="1.0" encoding="UTF-8"?>
<!DOCTYPE svg PUBLIC "-//W3C//DTD SVG 1.1//EN" "http://www.w3.org/Graphics/SVG/1.1/DTD/svg11.dtd">
<!-- Creator: CorelDRAW 2020 (64-Bit) -->
<svg xmlns="http://www.w3.org/2000/svg" xml:space="preserve" width="3.4673mm" height="4.1288mm" version="1.1" style="shape-rendering:geometricPrecision; text-rendering:geometricPrecision; image-rendering:optimizeQuality; fill-rule:evenodd; clip-rule:evenodd"
viewBox="0 0 4.97 5.92"
 xmlns:xlink="http://www.w3.org/1999/xlink"
 xmlns:xodm="http://www.corel.com/coreldraw/odm/2003">
 <defs>
  <style type="text/css">
   <![CDATA[
    .fil0 {fill:#FEFEFE}
   ]]>
  </style>
 </defs>
 <g id="Layer_x0020_1">
  <metadata id="CorelCorpID_0Corel-Layer"/>
  <path class="fil0" d="M-0 0.95l2.41 -0.95 2.57 0.95c0.01,2.08 -0.76,3.77 -2.48,4.97 -1.95,-1.33 -2.46,-3.08 -2.49,-4.97zm2.41 0.27l0.15 0c0.37,0 0.67,0.3 0.67,0.67l0 0.19c0.15,0.06 0.26,0.21 0.26,0.38l0 0.79c0,0.22 -0.18,0.41 -0.41,0.41l-1.19 0c-0.22,0 -0.41,-0.18 -0.41,-0.41l0 -0.79c0,-0.17 0.11,-0.32 0.26,-0.38l0 -0.19c0,-0.37 0.3,-0.67 0.67,-0.67zm0 0.2l0.15 0c0.26,0 0.47,0.21 0.47,0.47l0 0.16 -1.09 0 0 -0.16c0,-0.26 0.21,-0.47 0.47,-0.47z"/>
 </g>
</svg>
