<?xml version="1.0" encoding="UTF-8"?>
<!DOCTYPE svg PUBLIC "-//W3C//DTD SVG 1.1//EN" "http://www.w3.org/Graphics/SVG/1.1/DTD/svg11.dtd">
<!-- Creator: CorelDRAW 2020 (64-Bit) -->
<svg xmlns="http://www.w3.org/2000/svg" xml:space="preserve" width="3.9207mm" height="4.7457mm" version="1.1" style="shape-rendering:geometricPrecision; text-rendering:geometricPrecision; image-rendering:optimizeQuality; fill-rule:evenodd; clip-rule:evenodd"
viewBox="0 0 6.63 8.02"
 xmlns:xlink="http://www.w3.org/1999/xlink"
 xmlns:xodm="http://www.corel.com/coreldraw/odm/2003">
 <defs>
  <style type="text/css">
   <![CDATA[
    .fil0 {fill:#A06CD5}
   ]]>
  </style>
 </defs>
 <g id="Layer_x0020_1">
  <metadata id="CorelCorpID_0Corel-Layer"/>
  <rect class="fil0" y="2.74" width="6.63" height="5.28" rx="1.34" ry="1.34"/>
  <path class="fil0" d="M3.06 0l0.51 0c1.21,0 2.2,0.99 2.2,2.2l0 1.73c0,1.21 -0.99,2.2 -2.2,2.2l-0.51 0c-1.21,0 -2.2,-0.99 -2.2,-2.2l0 -1.73c0,-1.21 0.99,-2.2 2.2,-2.2zm-0 0.66l0.51 0c0.85,0 1.54,0.69 1.54,1.54l0 1.73c0,0.85 -0.69,1.54 -1.54,1.54l-0.51 0c-0.85,0 -1.54,-0.69 -1.54,-1.54l0 -1.73c0,-0.85 0.69,-1.54 1.54,-1.54z"/>
 </g>
</svg>
