<?xml version="1.0" encoding="UTF-8"?>
<!DOCTYPE svg PUBLIC "-//W3C//DTD SVG 1.1//EN" "http://www.w3.org/Graphics/SVG/1.1/DTD/svg11.dtd">
<!-- Creator: CorelDRAW 2020 (64-Bit) -->
<svg xmlns="http://www.w3.org/2000/svg" xml:space="preserve" width="10.4244mm" height="6.7013mm" version="1.1" style="shape-rendering:geometricPrecision; text-rendering:geometricPrecision; image-rendering:optimizeQuality; fill-rule:evenodd; clip-rule:evenodd"
viewBox="0 0 52.4 33.68"
 xmlns:xlink="http://www.w3.org/1999/xlink"
 xmlns:xodm="http://www.corel.com/coreldraw/odm/2003">
 <defs>
  <style type="text/css">
   <![CDATA[
    .fil0 {fill:#E1E1E1;fill-rule:nonzero}
   ]]>
  </style>
 </defs>
 <g id="Layer_x0020_1">
  <metadata id="CorelCorpID_0Corel-Layer"/>
  <g id="_2296697283840">
   <g>
    <g>
     <path class="fil0" d="M51.51 4.02c-0.55,-0.34 -1.24,-0.37 -1.82,-0.08l-12.26 6.13 0 -4.46c0,-3.1 -2.51,-5.61 -5.61,-5.61l-26.2 0c-3.1,0 -5.61,2.51 -5.61,5.61l0 22.46c0,3.1 2.51,5.61 5.61,5.61l26.2 0c3.1,0 5.61,-2.51 5.61,-5.61l0 -4.46 12.26 6.14c0.92,0.46 2.05,0.09 2.51,-0.84 0.13,-0.26 0.2,-0.55 0.2,-0.85l0 -22.46c0,-0.65 -0.34,-1.25 -0.89,-1.59zm-17.83 24.05c0,1.03 -0.84,1.87 -1.87,1.87l-26.2 0c-1.03,0 -1.87,-0.84 -1.87,-1.87l0 -22.46c0,-1.03 0.84,-1.87 1.87,-1.87l26.2 0c1.03,0 1.87,0.84 1.87,1.87l0 22.46zm14.97 -3.03l-11.23 -5.61 0 -5.17 11.23 -5.61 0 16.4z"/>
    </g>
   </g>
   <g>
    <g>
     <path class="fil0" d="M18.71 9.36c-4.13,0 -7.49,3.35 -7.49,7.49 0,4.13 3.35,7.49 7.49,7.49 4.13,0 7.49,-3.35 7.49,-7.49 0,-4.13 -3.35,-7.49 -7.49,-7.49zm0 11.23c-2.07,0 -3.74,-1.68 -3.74,-3.74 0,-2.07 1.68,-3.74 3.74,-3.74 2.07,0 3.74,1.68 3.74,3.74 0,2.07 -1.68,3.74 -3.74,3.74z"/>
    </g>
   </g>
   <g>
   </g>
   <g>
   </g>
   <g>
   </g>
   <g>
   </g>
   <g>
   </g>
   <g>
   </g>
   <g>
   </g>
   <g>
   </g>
   <g>
   </g>
   <g>
   </g>
   <g>
   </g>
   <g>
   </g>
   <g>
   </g>
   <g>
   </g>
   <g>
   </g>
  </g>
 </g>
</svg>
