<?xml version="1.0" encoding="UTF-8"?>
<!DOCTYPE svg PUBLIC "-//W3C//DTD SVG 1.1//EN" "http://www.w3.org/Graphics/SVG/1.1/DTD/svg11.dtd">
<!-- Creator: CorelDRAW 2020 (64-Bit) -->
<svg xmlns="http://www.w3.org/2000/svg" xml:space="preserve" width="4.1004mm" height="3.7679mm" version="1.1" style="shape-rendering:geometricPrecision; text-rendering:geometricPrecision; image-rendering:optimizeQuality; fill-rule:evenodd; clip-rule:evenodd"
viewBox="0 0 13.61 12.51"
 xmlns:xlink="http://www.w3.org/1999/xlink"
 xmlns:xodm="http://www.corel.com/coreldraw/odm/2003">
 <defs>
  <style type="text/css">
   <![CDATA[
    .fil0 {fill:#FEFEFE}
   ]]>
  </style>
 </defs>
 <g id="Layer_x0020_1">
  <metadata id="CorelCorpID_0Corel-Layer"/>
  <path class="fil0" d="M11.57 9.82l0 0.47c0,0.48 -0.39,0.88 -0.88,0.88l-7.78 0c-0.48,0 -0.88,-0.39 -0.88,-0.88l0 -0.47c0,0.48 0.39,0.88 0.88,0.88l7.78 0c0.48,0 0.88,-0.39 0.88,-0.88zm-4.8 -6.1c1.12,0 2.03,0.49 2.03,1.09 0,0.6 -0.91,1.09 -2.03,1.09 -1.12,0 -2.03,-0.49 -2.03,-1.09 0,-0.6 0.91,-1.09 2.03,-1.09zm4.8 7.45l0 0.47c0,0.48 -0.39,0.88 -0.88,0.88l-7.78 0c-0.48,0 -0.88,-0.39 -0.88,-0.88l0 -0.47c0,0.48 0.39,0.88 0.88,0.88l7.78 0c0.48,0 0.88,-0.39 0.88,-0.88zm0 -0.67l0 0.47c0,0.48 -0.39,0.88 -0.88,0.88l-7.78 0c-0.48,0 -0.88,-0.39 -0.88,-0.88l0 -0.47c0,0.48 0.39,0.88 0.88,0.88l7.78 0c0.48,0 0.88,-0.39 0.88,-0.88zm0 -7.36l0 6.52c0,0.48 -0.39,0.88 -0.88,0.88l-7.78 0c-0.48,0 -0.88,-0.39 -0.88,-0.88l0 -6.52 0.88 0 0 3.85c0.8,0.36 1.38,1.13 1.5,2.03l4.79 0c0.11,-0.91 0.7,-1.67 1.5,-2.03l0 -3.85 0.88 0zm-10.29 -3.13l11.05 0c0.7,0 1.28,0.61 1.28,1.36l0 4.79c0,0.7 -0.5,1.28 -1.13,1.35l0 -5.05 -11.34 0 0 5.05c-0.64,-0.08 -1.13,-0.66 -1.13,-1.35l0 -4.79c0,-0.75 0.58,-1.36 1.28,-1.36z"/>
 </g>
</svg>
